<?xml version="1.0" encoding="UTF-8"?>
<svg id="Capa_2" data-name="Capa 2" xmlns="http://www.w3.org/2000/svg" viewBox="0 0 184 283.29">
  <defs>
    <style>
      .cls-1 {
        fill: #fff;
      }

      .cls-2 {
        fill: #fc8f00;
      }

      .cls-3 {
        fill: #c1c1c1;
      }
    </style>
  </defs>
  <g id="Layer_5" data-name="Layer 5">
    <g>
      <path class="cls-2" d="M183,7.16V276.16H1V7.16H183Zm1-1H0V277.16H184V6.16h0Z"/>
      <path class="cls-2" d="M.4,19.05l-.05-1c6.07-.29,10.98-5.27,11.18-11.34l1,.03c-.22,6.59-5.54,12-12.13,12.31Z"/>
      <path class="cls-2" d="M183.53,19.01c-6.58-.31-11.91-5.72-12.13-12.31l1-.03c.2,6.07,5.11,11.06,11.17,11.34l-.05,1Z"/>
      <path class="cls-2" d="M171.84,276.73h-1c0-7.03,5.72-12.75,12.75-12.75v1c-6.48,0-11.75,5.27-11.75,11.75Z"/>
      <path class="cls-2" d="M12.12,276.73h-1c0-6.11-4.58-11.14-10.66-11.7l.09-1c6.59,.61,11.57,6.07,11.57,12.7Z"/>
      <path class="cls-2" d="M108.56,7.41v14.34h-33.12V7.41h33.12Zm1-1h-35.12V22.75h35.12V6.41h0Z"/>
      <path class="cls-2" d="M108.2,246.19c-2.74-3.54-9.11-5.83-16.22-5.83s-13.42,2.27-16.18,5.78l-1.07-.5c2.98-3.79,9.76-6.24,17.25-6.24s14.33,2.47,17.29,6.3l-1.07,.49Z"/>
      <path class="cls-2" d="M125.31,246.38v29.72H58.69v-29.72H125.31Zm.88-.88H57.8v31.48H126.2v-31.48h0Z"/>
      <path class="cls-2" d="M108.2,37.03c-2.74,3.54-9.11,5.83-16.22,5.83s-13.42-2.27-16.18-5.78l-1.07,.5c2.98,3.79,9.76,6.24,17.25,6.24s14.33-2.47,17.29-6.3l-1.07-.49Z"/>
      <path class="cls-2" d="M125.31,36.84V7.12H58.69v29.72H125.31Zm.88,.88H57.8V6.24H126.2v31.48h0Z"/>
      <path class="cls-2" d="M108.56,261.53v14.34h-33.12v-14.34h33.12Zm1-1h-35.12v16.34h35.12v-16.34h0Z"/>
      <path class="cls-2" d="M102.39,276.97v5.32h-20.42v-5.32h20.42Zm1-1h-22.42v7.32h22.42v-7.32h0Z"/>
      <path class="cls-2" d="M102.39,1V6.32h-20.42V1h20.42Zm1-1h-22.42V7.32h22.42V0h0Z"/>
      <rect class="cls-2" y="141.16" width="183.59" height="1"/>
      <path class="cls-2" d="M92,162.21c-11.33,0-20.54-9.21-20.54-20.54s9.21-20.54,20.54-20.54,20.54,9.21,20.54,20.54-9.21,20.54-20.54,20.54Zm0-40.08c-10.78,0-19.54,8.77-19.54,19.54s8.77,19.54,19.54,19.54,19.54-8.77,19.54-19.54-8.77-19.54-19.54-19.54Z"/>
    </g>
    <circle class="cls-3" cx="92" cy="141.66" r="1.83"/>
    <path class="cls-1" d="M93,253.33c0,.55-.45,1-1,1s-1-.45-1-1,.45-1,1-1,1,.45,1,1Z"/>
    <path class="cls-1" d="M93,29.95c0,.55-.45,1-1,1s-1-.45-1-1,.45-1,1-1,1,.45,1,1Z"/>
  </g>
</svg>